<svg width="19" height="18" viewBox="0 0 19 18" fill="none" xmlns="http://www.w3.org/2000/svg">
<path d="M11.7071 3.04289C11.3166 2.65237 10.6834 2.65237 10.2929 3.04289C9.90237 3.43342 9.90237 4.06658 10.2929 4.45711L11.7071 3.04289ZM16.25 9L16.9571 9.70711C17.1446 9.51957 17.25 9.26522 17.25 9C17.25 8.73478 17.1446 8.48043 16.9571 8.29289L16.25 9ZM10.2929 13.5429C9.90237 13.9334 9.90237 14.5666 10.2929 14.9571C10.6834 15.3476 11.3166 15.3476 11.7071 14.9571L10.2929 13.5429ZM2.75 8C2.19772 8 1.75 8.44771 1.75 9C1.75 9.55228 2.19772 10 2.75 10L2.75 8ZM10.2929 4.45711L15.5429 9.70711L16.9571 8.29289L11.7071 3.04289L10.2929 4.45711ZM15.5429 8.29289L10.2929 13.5429L11.7071 14.9571L16.9571 9.70711L15.5429 8.29289ZM16.25 8L2.75 8L2.75 10L16.25 10V8Z" fill="#F9FAFB"/>
</svg>
